<svg width="426" height="452" viewBox="0 0 426 452" fill="none" xmlns="http://www.w3.org/2000/svg">
<defs>
    <circle id="dot" cx="0" cy="0" r="4.726" fill="#FFFEFE" stroke="white" stroke-width="2"/>
</defs>
<style>
  .frame {
    opacity: 0;
    animation: fadeFrame 10s ease-in-out infinite;
  }
  .f0 { animation-delay: 0s; }
  .f1 { animation-delay: -8s; }
  .f2 { animation-delay: -6s; }
  .f3 { animation-delay: -4s; }
  .f4 { animation-delay: -2s; }

  @keyframes fadeFrame {
    0% { opacity: 0; }
    5%, 20% { opacity: 1; }
    25%, 100% { opacity: 0; }
  }
</style>

<g class="frame f0">
    <path d="M79.7899 100.272H78.4619C78.3499 98.512 76.9259 98.224 75.8379 98.224C74.6539 98.224 73.4699 98.688 73.4699 99.936C73.4699 102.928 79.8699 101.088 79.8699 105.152C79.8699 106.912 78.4619 108.192 75.8059 108.192C74.7179 108.192 71.9019 107.856 71.7579 104.864H73.1019C73.1659 106.576 74.5259 107.104 75.9019 107.104C77.3579 107.104 78.5099 106.608 78.5099 105.264C78.5099 102.224 72.1099 104.144 72.1099 100.016C72.1099 98.016 74.0459 97.168 75.9339 97.168C77.1979 97.168 79.6459 97.568 79.7899 100.272ZM85.5303 107.072V108.032C85.2263 108.144 84.7303 108.192 84.6183 108.192C82.3783 108.192 82.1703 106.976 82.1703 105.232V100.896H80.9063V99.904H82.1703V97.712H83.4663V99.904H85.5303V100.896H83.4663V105.2C83.4663 106.528 83.6583 107.072 84.7463 107.072H85.5303ZM88.6653 108H87.3693V99.84H88.5693V101.616C89.0653 100.176 89.9293 99.664 90.7133 99.664C90.8893 99.664 91.1773 99.68 91.4493 99.776V100.88H90.6493C89.5133 100.88 88.6653 101.824 88.6653 103.504V108ZM98.4663 105.744H99.7303C99.3463 107.28 98.2103 108.192 96.3543 108.192C93.9383 108.192 92.5143 106.624 92.5143 103.952C92.5143 101.28 94.0343 99.664 96.3543 99.664C98.6423 99.664 99.8103 101.152 99.8103 103.632L99.7783 104.24H93.8583C93.9063 106.096 94.7703 107.152 96.3223 107.152C97.5543 107.152 98.2263 106.64 98.4663 105.744ZM93.8743 103.28H98.4823C98.4343 101.664 97.8423 100.688 96.3223 100.688C94.8503 100.688 94.0343 101.632 93.8743 103.28ZM109.03 108H107.734V102.608C107.734 101.504 107.062 100.752 105.846 100.752C104.422 100.752 103.478 101.792 103.478 103.344V108H102.182V99.84H103.382V101.504C104.006 100.176 105.014 99.664 106.23 99.664C107.67 99.664 109.03 100.448 109.03 102.272V108ZM117.23 108.048V107.632L117.31 106.08C116.67 107.408 115.678 107.904 114.494 107.904C112.686 107.904 111.198 106.64 111.198 103.92C111.198 100.896 112.702 99.664 114.494 99.664C115.678 99.664 116.654 100.176 117.294 101.456V99.84H118.494V108C118.494 109.392 117.982 111.424 114.91 111.424C113.758 111.424 111.678 110.88 111.534 108.736L112.766 108.64C112.83 109.872 113.806 110.432 114.958 110.432C116.878 110.432 117.23 109.248 117.23 108.048ZM114.782 106.864C116.286 106.864 117.214 105.984 117.214 103.904C117.214 101.568 116.27 100.688 114.782 100.688C113.502 100.688 112.526 101.632 112.526 103.904C112.526 105.904 113.502 106.864 114.782 106.864ZM124.858 107.072V108.032C124.554 108.144 124.058 108.192 123.946 108.192C121.706 108.192 121.498 106.976 121.498 105.232V100.896H120.234V99.904H121.498V97.712H122.794V99.904H124.858V100.896H122.794V105.2C122.794 106.528 122.986 107.072 124.074 107.072H124.858ZM133.545 108H132.249V102.608C132.249 101.504 131.577 100.752 130.361 100.752C128.937 100.752 127.993 101.76 127.993 103.344V108H126.697V96.464H127.993V100.176L127.897 101.52C128.489 100.24 129.497 99.664 130.745 99.664C132.185 99.664 133.545 100.448 133.545 102.272V108Z" fill="#FFFEFE" transform="translate(110, 123)" />
    <use href="#dot" x="115.73" y="128.73" />
    <use href="#dot" x="163.92" y="128.73" />
    <use href="#dot" x="212.60" y="128.73" />
    <use href="#dot" x="261.27" y="128.73" />
    <use href="#dot" x="309.47" y="128.73" />
    <use href="#dot" x="115.73" y="177.40" />
    <use href="#dot" x="308.04" y="177.40" />
    <use href="#dot" x="115.73" y="226.07" />
    <use href="#dot" x="308.04" y="226.07" />
    <use href="#dot" x="115.73" y="274.75" />
    <use href="#dot" x="308.04" y="274.75" />
    <use href="#dot" x="115.73" y="322.47" />
    <use href="#dot" x="163.45" y="322.46" />
    <use href="#dot" x="211.64" y="322.46" />
    <use href="#dot" x="259.84" y="322.46" />
    <use href="#dot" x="308.04" y="322.46" />
</g>

<g class="frame f1">
    <path d="M86.6342 108.065H85.3062V98.9454L81.5622 108.065H80.4582L76.7622 98.9454V108.065H75.4502V97.3934H77.3862L81.0502 106.561L84.7142 97.3934H86.6342V108.065ZM92.6037 108.257C90.2677 108.257 88.8117 106.657 88.8117 104.001C88.8117 101.329 90.2677 99.7294 92.6037 99.7294C94.9397 99.7294 96.3957 101.329 96.3957 104.001C96.3957 106.657 94.9397 108.257 92.6037 108.257ZM92.6037 107.217C94.2357 107.217 95.0677 106.049 95.0677 104.001C95.0677 101.953 94.2357 100.753 92.6037 100.753C90.9717 100.753 90.1397 101.953 90.1397 104.001C90.1397 106.049 90.9717 107.217 92.6037 107.217ZM99.8232 108.065H98.6232V96.5294H99.9192V100.241L99.8232 101.505C100.479 100.241 101.439 99.7294 102.639 99.7294C104.431 99.7294 105.935 101.009 105.935 103.985C105.935 107.025 104.415 108.257 102.639 108.257C101.423 108.257 100.463 107.745 99.8232 106.449V108.065ZM102.335 107.233C103.615 107.233 104.607 106.273 104.607 103.985C104.607 101.729 103.615 100.753 102.335 100.753C100.847 100.753 99.9032 101.649 99.9032 103.985C99.9032 106.321 100.863 107.233 102.335 107.233ZM109.45 108.065H108.154V99.9054H109.45V108.065ZM109.498 98.2734H108.106V96.8494H109.498V98.2734ZM113.591 108.065H112.295V96.5294H113.591V108.065ZM117.732 108.065H116.436V99.9054H117.732V108.065ZM117.78 98.2734H116.388V96.8494H117.78V98.2734ZM124.112 107.137V108.097C123.808 108.209 123.312 108.257 123.2 108.257C120.96 108.257 120.752 107.041 120.752 105.297V100.961H119.488V99.9694H120.752V97.7774H122.048V99.9694H124.112V100.961H122.048V105.265C122.048 106.593 122.24 107.137 123.328 107.137H124.112ZM127.775 111.457H126.527L127.967 107.841L124.863 99.9054H126.223L128.607 106.449L131.071 99.9054H132.399L127.775 111.457Z" fill="#FFFEFE" transform="translate(111, 123)" />
    <use href="#dot" x="184.97" y="128.73" />
    <use href="#dot" x="243.18" y="128.73" />
    <use href="#dot" x="158.72" y="164.99" />
    <use href="#dot" x="213.60" y="164.99" />
    <use href="#dot" x="266.09" y="164.99" />
    <use href="#dot" x="116.73" y="200.30" />
    <use href="#dot" x="309.04" y="200.30" />
    <use href="#dot" x="158.72" y="225.59" />
    <use href="#dot" x="266.09" y="226.07" />
    <use href="#dot" x="116.73" y="252.80" />
    <use href="#dot" x="309.03" y="252.80" />
    <use href="#dot" x="158.72" y="286.20" />
    <use href="#dot" x="212.64" y="286.20" />
    <use href="#dot" x="266.09" y="286.20" />
    <use href="#dot" x="184.97" y="322.47" />
    <use href="#dot" x="243.18" y="322.47" />
</g>

<g class="frame f2">
    <path d="M91.0556 107.272H89.7276C89.6156 105.512 88.1916 105.224 87.1036 105.224C85.9196 105.224 84.7356 105.688 84.7356 106.936C84.7356 109.928 91.1356 108.088 91.1356 112.152C91.1356 113.912 89.7276 115.192 87.0716 115.192C85.9836 115.192 83.1676 114.856 83.0236 111.864H84.3676C84.4316 113.576 85.7916 114.104 87.1676 114.104C88.6236 114.104 89.7756 113.608 89.7756 112.264C89.7756 109.224 83.3756 111.144 83.3756 107.016C83.3756 105.016 85.3116 104.168 87.1996 104.168C88.4636 104.168 90.9116 104.568 91.0556 107.272ZM96.7959 114.072V115.032C96.4919 115.144 95.9959 115.192 95.8839 115.192C93.6439 115.192 93.4359 113.976 93.4359 112.232V107.896H92.1719V106.904H93.4359V104.712H94.7319V106.904H96.7959V107.896H94.7319V112.2C94.7319 113.528 94.9239 114.072 96.0119 114.072H96.7959ZM105.835 114.152V115.016C105.451 115.144 105.051 115.192 104.795 115.192C103.771 115.192 103.371 114.776 103.371 113.528C102.699 114.824 101.579 115.192 100.619 115.192C99.4989 115.192 97.9629 114.696 97.9629 112.872C97.9629 110.76 99.6269 110.392 101.499 110.312L103.307 110.232V109.32C103.307 108.344 102.971 107.64 101.419 107.64C100.587 107.64 99.5949 107.912 99.4669 109.08L98.2509 108.968C98.3949 107.208 100.171 106.664 101.419 106.664C103.675 106.664 104.603 107.672 104.603 109.144V113.048C104.603 113.896 104.667 114.152 105.243 114.152H105.835ZM103.307 111.576V111.112L101.467 111.176C100.235 111.224 99.2589 111.56 99.2589 112.808C99.2589 114.04 100.427 114.168 101.019 114.168C102.171 114.168 103.307 113.288 103.307 111.576ZM108.741 115H107.541V103.464H108.837V107.176L108.741 108.44C109.397 107.176 110.357 106.664 111.557 106.664C113.349 106.664 114.853 107.944 114.853 110.92C114.853 113.96 113.333 115.192 111.557 115.192C110.341 115.192 109.381 114.68 108.741 113.384V115ZM111.253 114.168C112.533 114.168 113.525 113.208 113.525 110.92C113.525 108.664 112.533 107.688 111.253 107.688C109.765 107.688 108.821 108.584 108.821 110.92C108.821 113.256 109.781 114.168 111.253 114.168ZM118.368 115H117.072V106.84H118.368V115ZM118.416 105.208H117.024V103.784H118.416V105.208ZM122.509 115H121.213V103.464H122.509V115ZM126.65 115H125.354V106.84H126.65V115ZM126.698 105.208H125.306V103.784H126.698V105.208ZM133.03 114.072V115.032C132.726 115.144 132.23 115.192 132.118 115.192C129.878 115.192 129.67 113.976 129.67 112.232V107.896H128.406V106.904H129.67V104.712H130.966V106.904H133.03V107.896H130.966V112.2C130.966 113.528 131.158 114.072 132.246 114.072H133.03ZM136.693 118.392H135.445L136.885 114.776L133.781 106.84H135.141L137.525 113.384L139.989 106.84H141.317L136.693 118.392Z" fill="#FFFEFE" transform="translate(101, 115)" />
    <use href="#dot" x="214.19" y="120.79" />
    <use href="#dot" x="173.07" y="128.53" />
    <use href="#dot" x="254.53" y="129.24" />
    <use href="#dot" x="138.39" y="151.37" />
    <use href="#dot" x="288.79" y="152.67" />
    <use href="#dot" x="115.10" y="185.67" />
    <use href="#dot" x="311.52" y="187.45" />
    <use href="#dot" x="106.77" y="226.12" />
    <use href="#dot" x="319.12" y="226.96" />
    <use href="#dot" x="114.75" y="267.43" />
    <use href="#dot" x="311.07" y="267.58" />
    <use href="#dot" x="137.58" y="301.75" />
    <use href="#dot" x="288.02" y="302.04" />
    <use href="#dot" x="171.92" y="324.92" />
    <use href="#dot" x="253.61" y="325.07" />
    <use href="#dot" x="207.52" y="330.75" />
</g>

<g class="frame f3">
    <path d="M73.2845 144H71.9565V134.432H68.4365V133.328H76.8045V134.432H73.2845V144ZM85.358 144H84.062V138.608C84.062 137.504 83.39 136.752 82.174 136.752C80.75 136.752 79.806 137.76 79.806 139.344V144H78.51V132.464H79.806V136.176L79.71 137.52C80.302 136.24 81.31 135.664 82.558 135.664C83.998 135.664 85.358 136.448 85.358 138.272V144ZM93.6226 141.744H94.8866C94.5026 143.28 93.3666 144.192 91.5106 144.192C89.0946 144.192 87.6706 142.624 87.6706 139.952C87.6706 137.28 89.1906 135.664 91.5106 135.664C93.7986 135.664 94.9666 137.152 94.9666 139.632L94.9346 140.24H89.0146C89.0626 142.096 89.9266 143.152 91.4786 143.152C92.7106 143.152 93.3826 142.64 93.6226 141.744ZM89.0306 139.28H93.6386C93.5906 137.664 92.9986 136.688 91.4786 136.688C90.0066 136.688 89.1906 137.632 89.0306 139.28ZM104.624 143.072V144.032C104.32 144.144 103.824 144.192 103.712 144.192C101.472 144.192 101.264 142.976 101.264 141.232V136.896H100V135.904H101.264V133.712H102.56V135.904H104.624V136.896H102.56V141.2C102.56 142.528 102.752 143.072 103.84 143.072H104.624ZM113.311 144H112.015V138.608C112.015 137.504 111.343 136.752 110.127 136.752C108.703 136.752 107.759 137.76 107.759 139.344V144H106.463V132.464H107.759V136.176L107.663 137.52C108.255 136.24 109.263 135.664 110.511 135.664C111.951 135.664 113.311 136.448 113.311 138.272V144ZM117.4 144H116.104V135.84H117.304V137.616C117.8 136.176 118.664 135.664 119.448 135.664C119.624 135.664 119.912 135.68 120.184 135.776V136.88H119.384C118.248 136.88 117.4 137.824 117.4 139.504V144ZM127.201 141.744H128.465C128.081 143.28 126.945 144.192 125.089 144.192C122.673 144.192 121.249 142.624 121.249 139.952C121.249 137.28 122.769 135.664 125.089 135.664C127.377 135.664 128.545 137.152 128.545 139.632L128.513 140.24H122.593C122.641 142.096 123.505 143.152 125.057 143.152C126.289 143.152 126.961 142.64 127.201 141.744ZM122.609 139.28H127.217C127.169 137.664 126.577 136.688 125.057 136.688C123.585 136.688 122.769 137.632 122.609 139.28ZM136.388 141.744H137.652C137.268 143.28 136.132 144.192 134.276 144.192C131.86 144.192 130.436 142.624 130.436 139.952C130.436 137.28 131.956 135.664 134.276 135.664C136.564 135.664 137.732 137.152 137.732 139.632L137.7 140.24H131.78C131.828 142.096 132.692 143.152 134.244 143.152C135.476 143.152 136.148 142.64 136.388 141.744ZM131.796 139.28H136.404C136.356 137.664 135.764 136.688 134.244 136.688C132.772 136.688 131.956 137.632 131.796 139.28ZM145.15 147.392H143.854V135.84H145.054V137.472C145.694 136.192 146.654 135.664 147.87 135.664C149.646 135.664 151.166 136.88 151.166 139.936C151.166 142.912 149.662 144.192 147.87 144.192C146.686 144.192 145.726 143.712 145.07 142.464L145.15 143.696V147.392ZM147.566 143.152C148.846 143.152 149.838 142.192 149.838 139.936C149.838 137.664 148.846 136.688 147.566 136.688C146.094 136.688 145.134 137.552 145.134 139.936C145.134 142.24 146.078 143.152 147.566 143.152ZM154.681 144H153.385V135.84H154.681V144ZM154.729 134.208H153.337V132.784H154.729V134.208ZM158.822 144H157.526V132.464H158.822V144ZM162.962 144H161.666V132.464H162.962V144ZM173.007 143.152V144.016C172.623 144.144 172.223 144.192 171.967 144.192C170.943 144.192 170.543 143.776 170.543 142.528C169.871 143.824 168.751 144.192 167.791 144.192C166.671 144.192 165.135 143.696 165.135 141.872C165.135 139.76 166.799 139.392 168.671 139.312L170.479 139.232V138.32C170.479 137.344 170.143 136.64 168.591 136.64C167.759 136.64 166.767 136.912 166.639 138.08L165.423 137.968C165.567 136.208 167.343 135.664 168.591 135.664C170.847 135.664 171.775 136.672 171.775 138.144V142.048C171.775 142.896 171.839 143.152 172.415 143.152H173.007ZM170.479 140.576V140.112L168.639 140.176C167.407 140.224 166.431 140.56 166.431 141.808C166.431 143.04 167.599 143.168 168.191 143.168C169.343 143.168 170.479 142.288 170.479 140.576ZM176.009 144H174.713V135.84H175.913V137.616C176.409 136.176 177.273 135.664 178.057 135.664C178.233 135.664 178.521 135.68 178.793 135.776V136.88H177.993C176.857 136.88 176.009 137.824 176.009 139.504V144ZM186.048 137.984L184.832 138.064C184.72 136.816 183.824 136.576 182.976 136.576C182.064 136.576 181.232 136.848 181.232 137.76C181.232 140 186.144 138.624 186.144 141.84C186.144 143.264 184.928 144.192 182.896 144.192C181.952 144.192 179.888 143.92 179.696 141.776H180.928C181.056 142.88 181.984 143.216 182.928 143.216C184.096 143.216 184.88 142.864 184.88 141.92C184.88 139.664 179.968 141.008 179.968 137.872C179.968 136.336 181.504 135.664 182.944 135.664C184.064 135.664 185.856 135.952 186.048 137.984ZM195.225 144.192C192.889 144.192 191.433 142.592 191.433 139.936C191.433 137.264 192.889 135.664 195.225 135.664C197.561 135.664 199.017 137.264 199.017 139.936C199.017 142.592 197.561 144.192 195.225 144.192ZM195.225 143.152C196.857 143.152 197.689 141.984 197.689 139.936C197.689 137.888 196.857 136.688 195.225 136.688C193.593 136.688 192.761 137.888 192.761 139.936C192.761 141.984 193.593 143.152 195.225 143.152ZM202.748 144H201.452V136.848H200.188V135.84H201.452V134.976C201.452 133.568 201.644 132.288 203.9 132.288C204.124 132.288 204.524 132.304 204.844 132.368V133.28H204.028C202.94 133.28 202.748 133.856 202.748 134.896V135.84H204.812V136.848H202.748V144ZM73.8756 165H72.5796V159.608C72.5796 158.504 71.9716 157.752 70.8356 157.752C69.5876 157.752 68.7396 158.792 68.7396 160.344V165H67.4436V159.608C67.4436 158.504 66.8196 157.752 65.6836 157.752C64.4356 157.752 63.5716 158.792 63.5716 160.344V165H62.2756V156.84H63.4756V158.504C64.0356 157.192 64.9796 156.664 66.0676 156.664C67.2196 156.664 68.3236 157.224 68.6436 158.488C69.1716 157.224 70.0836 156.664 71.2356 156.664C72.5956 156.664 73.8756 157.448 73.8756 159.272V165ZM79.8499 165.192C77.5139 165.192 76.0579 163.592 76.0579 160.936C76.0579 158.264 77.5139 156.664 79.8499 156.664C82.1859 156.664 83.6419 158.264 83.6419 160.936C83.6419 163.592 82.1859 165.192 79.8499 165.192ZM79.8499 164.152C81.4819 164.152 82.3139 162.984 82.3139 160.936C82.3139 158.888 81.4819 157.688 79.8499 157.688C78.2179 157.688 77.3859 158.888 77.3859 160.936C77.3859 162.984 78.2179 164.152 79.8499 164.152ZM89.2934 165H87.9654L84.7814 156.84H86.1574L88.6534 163.688L91.1654 156.84H92.4934L89.2934 165ZM99.732 162.744H100.996C100.612 164.28 99.476 165.192 97.62 165.192C95.204 165.192 93.78 163.624 93.78 160.952C93.78 158.28 95.3 156.664 97.62 156.664C99.908 156.664 101.076 158.152 101.076 160.632L101.044 161.24H95.124C95.172 163.096 96.036 164.152 97.588 164.152C98.82 164.152 99.492 163.64 99.732 162.744ZM95.14 160.28H99.748C99.7 158.664 99.108 157.688 97.588 157.688C96.116 157.688 95.3 158.632 95.14 160.28ZM115.047 165H113.751V159.608C113.751 158.504 113.143 157.752 112.007 157.752C110.759 157.752 109.911 158.792 109.911 160.344V165H108.615V159.608C108.615 158.504 107.991 157.752 106.855 157.752C105.607 157.752 104.743 158.792 104.743 160.344V165H103.447V156.84H104.647V158.504C105.207 157.192 106.151 156.664 107.239 156.664C108.391 156.664 109.495 157.224 109.815 158.488C110.343 157.224 111.255 156.664 112.407 156.664C113.767 156.664 115.047 157.448 115.047 159.272V165ZM123.326 162.744H124.59C124.206 164.28 123.07 165.192 121.214 165.192C118.798 165.192 117.374 163.624 117.374 160.952C117.374 158.28 118.894 156.664 121.214 156.664C123.502 156.664 124.67 158.152 124.67 160.632L124.638 161.24H118.718C118.766 163.096 119.63 164.152 121.182 164.152C122.414 164.152 123.086 163.64 123.326 162.744ZM118.734 160.28H123.342C123.294 158.664 122.702 157.688 121.182 157.688C119.71 157.688 118.894 158.632 118.734 160.28ZM133.889 165H132.593V159.608C132.593 158.504 131.921 157.752 130.705 157.752C129.281 157.752 128.337 158.792 128.337 160.344V165H127.041V156.84H128.241V158.504C128.865 157.176 129.873 156.664 131.089 156.664C132.529 156.664 133.889 157.448 133.889 159.272V165ZM140.218 164.072V165.032C139.914 165.144 139.418 165.192 139.306 165.192C137.066 165.192 136.858 163.976 136.858 162.232V157.896H135.594V156.904H136.858V154.712H138.154V156.904H140.218V157.896H138.154V162.2C138.154 163.528 138.346 164.072 139.434 164.072H140.218ZM147.103 165H145.807V153.464H147.103V165ZM153.115 165.192C150.779 165.192 149.323 163.592 149.323 160.936C149.323 158.264 150.779 156.664 153.115 156.664C155.451 156.664 156.907 158.264 156.907 160.936C156.907 163.592 155.451 165.192 153.115 165.192ZM153.115 164.152C154.747 164.152 155.579 162.984 155.579 160.936C155.579 158.888 154.747 157.688 153.115 157.688C151.483 157.688 150.651 158.888 150.651 160.936C150.651 162.984 151.483 164.152 153.115 164.152ZM165.983 165H164.687V159.608C164.687 158.504 164.015 157.752 162.799 157.752C161.375 157.752 160.431 158.792 160.431 160.344V165H159.135V156.84H160.335V158.504C160.959 157.176 161.967 156.664 163.183 156.664C164.623 156.664 165.983 157.448 165.983 159.272V165ZM174.184 165.048V164.632L174.264 163.08C173.624 164.408 172.632 164.904 171.448 164.904C169.64 164.904 168.152 163.64 168.152 160.92C168.152 157.896 169.656 156.664 171.448 156.664C172.632 156.664 173.608 157.176 174.248 158.456V156.84H175.448V165C175.448 166.392 174.936 168.424 171.864 168.424C170.712 168.424 168.632 167.88 168.488 165.736L169.72 165.64C169.784 166.872 170.76 167.432 171.912 167.432C173.832 167.432 174.184 166.248 174.184 165.048ZM171.736 163.864C173.24 163.864 174.168 162.984 174.168 160.904C174.168 158.568 173.224 157.688 171.736 157.688C170.456 157.688 169.48 158.632 169.48 160.904C169.48 162.904 170.456 163.864 171.736 163.864ZM183.748 162.744H185.012C184.628 164.28 183.492 165.192 181.636 165.192C179.22 165.192 177.796 163.624 177.796 160.952C177.796 158.28 179.316 156.664 181.636 156.664C183.924 156.664 185.092 158.152 185.092 160.632L185.06 161.24H179.14C179.188 163.096 180.052 164.152 181.604 164.152C182.836 164.152 183.508 163.64 183.748 162.744ZM179.156 160.28H183.764C183.716 158.664 183.124 157.688 181.604 157.688C180.132 157.688 179.316 158.632 179.156 160.28ZM190.887 165H189.559L186.375 156.84H187.751L190.247 163.688L192.759 156.84H194.087L190.887 165ZM197.15 165H195.854V156.84H197.15V165ZM197.198 155.208H195.806V153.784H197.198V155.208ZM203.53 164.072V165.032C203.226 165.144 202.73 165.192 202.618 165.192C200.378 165.192 200.17 163.976 200.17 162.232V157.896H198.906V156.904H200.17V154.712H201.466V156.904H203.53V157.896H201.466V162.2C201.466 163.528 201.658 164.072 202.746 164.072H203.53ZM207.193 168.392H205.945L207.385 164.776L204.281 156.84H205.641L208.025 163.384L210.489 156.84H211.817L207.193 168.392Z" fill="#FFFEFE" transform="translate(77, 82)" />
    <use href="#dot" x="90.72" y="87.72" />
    <use href="#dot" x="206.18" y="87.72" />
    <use href="#dot" x="329.18" y="87.72" />
    <use href="#dot" x="122.72" y="120.72" />
    <use href="#dot" x="206.18" y="120.72" />
    <use href="#dot" x="297.18" y="120.72" />
    <use href="#dot" x="82.73" y="225.72" />
    <use href="#dot" x="115.72" y="225.72" />
    <use href="#dot" x="308.73" y="225.72" />
    <use href="#dot" x="342.73" y="225.72" />
    <use href="#dot" x="122.72" y="331.27" />
    <use href="#dot" x="206.18" y="331.27" />
    <use href="#dot" x="297.17" y="331.27" />
    <use href="#dot" x="90.72" y="364.27" />
    <use href="#dot" x="206.18" y="364.27" />
    <use href="#dot" x="329.17" y="364.27" />
</g>

<g class="frame f4">
    <path d="M118.952 219H116.96V204.648H111.68V202.992H124.232V204.648H118.952V219ZM137.062 219H135.118V210.912C135.118 209.256 134.11 208.128 132.286 208.128C130.15 208.128 128.734 209.64 128.734 212.016V219H126.79V201.696H128.734V207.264L128.59 209.28C129.478 207.36 130.99 206.496 132.862 206.496C135.022 206.496 137.062 207.672 137.062 210.408V219ZM149.459 215.616H151.355C150.779 217.92 149.075 219.288 146.291 219.288C142.667 219.288 140.531 216.936 140.531 212.928C140.531 208.92 142.811 206.496 146.291 206.496C149.723 206.496 151.475 208.728 151.475 212.448L151.427 213.36H142.547C142.619 216.144 143.915 217.728 146.243 217.728C148.091 217.728 149.099 216.96 149.459 215.616ZM142.571 211.92H149.483C149.411 209.496 148.523 208.032 146.243 208.032C144.035 208.032 142.811 209.448 142.571 211.92ZM165.961 217.608V219.048C165.505 219.216 164.761 219.288 164.593 219.288C161.233 219.288 160.921 217.464 160.921 214.848V208.344H159.025V206.856H160.921V203.568H162.865V206.856H165.961V208.344H162.865V214.8C162.865 216.792 163.153 217.608 164.785 217.608H165.961ZM178.992 219H177.048V210.912C177.048 209.256 176.04 208.128 174.216 208.128C172.08 208.128 170.664 209.64 170.664 212.016V219H168.72V201.696H170.664V207.264L170.52 209.28C171.408 207.36 172.92 206.496 174.792 206.496C176.952 206.496 178.992 207.672 178.992 210.408V219ZM185.125 219H183.181V206.76H184.981V209.424C185.725 207.264 187.021 206.496 188.197 206.496C188.461 206.496 188.893 206.52 189.301 206.664V208.32H188.101C186.397 208.32 185.125 209.736 185.125 212.256V219ZM199.826 215.616H201.722C201.146 217.92 199.442 219.288 196.658 219.288C193.034 219.288 190.898 216.936 190.898 212.928C190.898 208.92 193.178 206.496 196.658 206.496C200.09 206.496 201.842 208.728 201.842 212.448L201.794 213.36H192.914C192.986 216.144 194.282 217.728 196.61 217.728C198.458 217.728 199.466 216.96 199.826 215.616ZM192.938 211.92H199.85C199.778 209.496 198.89 208.032 196.61 208.032C194.402 208.032 193.178 209.448 192.938 211.92ZM213.607 215.616H215.503C214.927 217.92 213.223 219.288 210.439 219.288C206.815 219.288 204.679 216.936 204.679 212.928C204.679 208.92 206.959 206.496 210.439 206.496C213.871 206.496 215.623 208.728 215.623 212.448L215.575 213.36H206.695C206.767 216.144 208.063 217.728 210.391 217.728C212.239 217.728 213.247 216.96 213.607 215.616ZM206.719 211.92H213.631C213.559 209.496 212.671 208.032 210.391 208.032C208.183 208.032 206.959 209.448 206.719 211.92ZM226.75 224.088H224.806V206.76H226.606V209.208C227.566 207.288 229.006 206.496 230.83 206.496C233.494 206.496 235.774 208.32 235.774 212.904C235.774 217.368 233.518 219.288 230.83 219.288C229.054 219.288 227.614 218.568 226.63 216.696L226.75 218.544V224.088ZM230.374 217.728C232.294 217.728 233.782 216.288 233.782 212.904C233.782 209.496 232.294 208.032 230.374 208.032C228.166 208.032 226.726 209.328 226.726 212.904C226.726 216.36 228.142 217.728 230.374 217.728ZM241.046 219H239.102V206.76H241.046V219ZM241.118 204.312H239.03V202.176H241.118V204.312ZM247.257 219H245.313V201.696H247.257V219ZM253.468 219H251.524V201.696H253.468V219ZM268.535 217.728V219.024C267.959 219.216 267.359 219.288 266.975 219.288C265.439 219.288 264.839 218.664 264.839 216.792C263.831 218.736 262.151 219.288 260.711 219.288C259.031 219.288 256.727 218.544 256.727 215.808C256.727 212.64 259.223 212.088 262.031 211.968L264.743 211.848V210.48C264.743 209.016 264.239 207.96 261.911 207.96C260.663 207.96 259.175 208.368 258.983 210.12L257.159 209.952C257.375 207.312 260.039 206.496 261.911 206.496C265.295 206.496 266.687 208.008 266.687 210.216V216.072C266.687 217.344 266.783 217.728 267.647 217.728H268.535ZM264.743 213.864V213.168L261.983 213.264C260.135 213.336 258.671 213.84 258.671 215.712C258.671 217.56 260.423 217.752 261.311 217.752C263.039 217.752 264.743 216.432 264.743 213.864ZM273.039 219H271.095V206.76H272.895V209.424C273.639 207.264 274.935 206.496 276.111 206.496C276.375 206.496 276.807 206.52 277.215 206.664V208.32H276.015C274.311 208.32 273.039 209.736 273.039 212.256V219ZM288.097 209.976L286.273 210.096C286.105 208.224 284.761 207.864 283.489 207.864C282.121 207.864 280.873 208.272 280.873 209.64C280.873 213 288.241 210.936 288.241 215.76C288.241 217.896 286.417 219.288 283.369 219.288C281.953 219.288 278.857 218.88 278.569 215.664H280.417C280.609 217.32 282.001 217.824 283.417 217.824C285.169 217.824 286.345 217.296 286.345 215.88C286.345 212.496 278.977 214.512 278.977 209.808C278.977 207.504 281.281 206.496 283.441 206.496C285.121 206.496 287.809 206.928 288.097 209.976ZM301.862 219.288C298.358 219.288 296.174 216.888 296.174 212.904C296.174 208.896 298.358 206.496 301.862 206.496C305.366 206.496 307.55 208.896 307.55 212.904C307.55 216.888 305.366 219.288 301.862 219.288ZM301.862 217.728C304.31 217.728 305.558 215.976 305.558 212.904C305.558 209.832 304.31 208.032 301.862 208.032C299.414 208.032 298.166 209.832 298.166 212.904C298.166 215.976 299.414 217.728 301.862 217.728ZM313.147 219H311.203V208.272H309.307V206.76H311.203V205.464C311.203 203.352 311.491 201.432 314.875 201.432C315.211 201.432 315.811 201.456 316.291 201.552V202.92H315.067C313.435 202.92 313.147 203.784 313.147 205.344V206.76H316.243V208.272H313.147V219ZM119.838 250H117.894V241.912C117.894 240.256 116.982 239.128 115.278 239.128C113.406 239.128 112.134 240.688 112.134 243.016V250H110.19V241.912C110.19 240.256 109.254 239.128 107.55 239.128C105.678 239.128 104.382 240.688 104.382 243.016V250H102.438V237.76H104.238V240.256C105.078 238.288 106.494 237.496 108.126 237.496C109.854 237.496 111.51 238.336 111.99 240.232C112.782 238.336 114.15 237.496 115.878 237.496C117.918 237.496 119.838 238.672 119.838 241.408V250ZM128.8 250.288C125.296 250.288 123.112 247.888 123.112 243.904C123.112 239.896 125.296 237.496 128.8 237.496C132.304 237.496 134.488 239.896 134.488 243.904C134.488 247.888 132.304 250.288 128.8 250.288ZM128.8 248.728C131.248 248.728 132.496 246.976 132.496 243.904C132.496 240.832 131.248 239.032 128.8 239.032C126.352 239.032 125.104 240.832 125.104 243.904C125.104 246.976 126.352 248.728 128.8 248.728ZM142.965 250H140.973L136.197 237.76H138.261L142.005 248.032L145.773 237.76H147.765L142.965 250ZM158.623 246.616H160.519C159.943 248.92 158.239 250.288 155.455 250.288C151.831 250.288 149.695 247.936 149.695 243.928C149.695 239.92 151.975 237.496 155.455 237.496C158.887 237.496 160.639 239.728 160.639 243.448L160.591 244.36H151.711C151.783 247.144 153.079 248.728 155.407 248.728C157.255 248.728 158.263 247.96 158.623 246.616ZM151.735 242.92H158.647C158.575 240.496 157.687 239.032 155.407 239.032C153.199 239.032 151.975 240.448 151.735 242.92ZM181.596 250H179.652V241.912C179.652 240.256 178.74 239.128 177.036 239.128C175.164 239.128 173.892 240.688 173.892 243.016V250H171.948V241.912C171.948 240.256 171.012 239.128 169.308 239.128C167.436 239.128 166.14 240.688 166.14 243.016V250H164.196V237.76H165.996V240.256C166.836 238.288 168.252 237.496 169.884 237.496C171.612 237.496 173.268 238.336 173.748 240.232C174.54 238.336 175.908 237.496 177.636 237.496C179.676 237.496 181.596 238.672 181.596 241.408V250ZM194.014 246.616H195.91C195.334 248.92 193.63 250.288 190.846 250.288C187.222 250.288 185.086 247.936 185.086 243.928C185.086 239.92 187.366 237.496 190.846 237.496C194.278 237.496 196.03 239.728 196.03 243.448L195.982 244.36H187.102C187.174 247.144 188.47 248.728 190.798 248.728C192.646 248.728 193.654 247.96 194.014 246.616ZM187.126 242.92H194.038C193.966 240.496 193.078 239.032 190.798 239.032C188.59 239.032 187.366 240.448 187.126 242.92ZM209.859 250H207.915V241.912C207.915 240.256 206.907 239.128 205.083 239.128C202.947 239.128 201.531 240.688 201.531 243.016V250H199.587V237.76H201.387V240.256C202.323 238.264 203.835 237.496 205.659 237.496C207.819 237.496 209.859 238.672 209.859 241.408V250ZM219.352 248.608V250.048C218.896 250.216 218.152 250.288 217.984 250.288C214.624 250.288 214.312 248.464 214.312 245.848V239.344H212.416V237.856H214.312V234.568H216.256V237.856H219.352V239.344H216.256V245.8C216.256 247.792 216.544 248.608 218.176 248.608H219.352ZM229.679 250H227.735V232.696H229.679V250ZM238.698 250.288C235.194 250.288 233.01 247.888 233.01 243.904C233.01 239.896 235.194 237.496 238.698 237.496C242.202 237.496 244.386 239.896 244.386 243.904C244.386 247.888 242.202 250.288 238.698 250.288ZM238.698 248.728C241.146 248.728 242.394 246.976 242.394 243.904C242.394 240.832 241.146 239.032 238.698 239.032C236.25 239.032 235.002 240.832 235.002 243.904C235.002 246.976 236.25 248.728 238.698 248.728ZM257.999 250H256.055V241.912C256.055 240.256 255.047 239.128 253.223 239.128C251.087 239.128 249.671 240.688 249.671 243.016V250H247.727V237.76H249.527V240.256C250.463 238.264 251.975 237.496 253.799 237.496C255.959 237.496 257.999 238.672 257.999 241.408V250ZM270.3 250.072V249.448L270.42 247.12C269.46 249.112 267.972 249.856 266.196 249.856C263.484 249.856 261.252 247.96 261.252 243.88C261.252 239.344 263.508 237.496 266.196 237.496C267.972 237.496 269.436 238.264 270.396 240.184V237.76H272.196V250C272.196 252.088 271.428 255.136 266.82 255.136C265.092 255.136 261.972 254.32 261.756 251.104L263.604 250.96C263.7 252.808 265.164 253.648 266.892 253.648C269.772 253.648 270.3 251.872 270.3 250.072ZM266.628 248.296C268.884 248.296 270.276 246.976 270.276 243.856C270.276 240.352 268.86 239.032 266.628 239.032C264.708 239.032 263.244 240.448 263.244 243.856C263.244 246.856 264.708 248.296 266.628 248.296ZM284.646 246.616H286.542C285.966 248.92 284.262 250.288 281.478 250.288C277.854 250.288 275.718 247.936 275.718 243.928C275.718 239.92 277.998 237.496 281.478 237.496C284.91 237.496 286.662 239.728 286.662 243.448L286.614 244.36H277.734C277.806 247.144 279.102 248.728 281.43 248.728C283.278 248.728 284.286 247.96 284.646 246.616ZM277.758 242.92H284.67C284.598 240.496 283.71 239.032 281.43 239.032C279.222 239.032 277.998 240.448 277.758 242.92ZM295.356 250H293.364L288.588 237.76H290.652L294.396 248.032L298.164 237.76H300.156L295.356 250ZM304.75 250H302.806V237.76H304.75V250ZM304.822 235.312H302.734V233.176H304.822V235.312ZM314.32 248.608V250.048C313.864 250.216 313.12 250.288 312.952 250.288C309.592 250.288 309.28 248.464 309.28 245.848V239.344H307.384V237.856H309.28V234.568H311.224V237.856H314.32V239.344H311.224V245.8C311.224 247.792 311.512 248.608 313.144 248.608H314.32ZM319.815 255.088H317.943L320.103 249.664L315.447 237.76H317.487L321.063 247.576L324.759 237.76H326.751L319.815 255.088Z" fill="#FFFEFE" transform="translate(0, 0)" />
    <use href="#dot" x="21.00" y="9.00" />
    <use href="#dot" x="202.00" y="9.00" />
    <use href="#dot" x="395.50" y="9.00" />
    <use href="#dot" x="71.00" y="61.00" />
    <use href="#dot" x="202.00" y="61.00" />
    <use href="#dot" x="345.00" y="61.00" />
    <use href="#dot" x="9.00" y="226.00" />
    <use href="#dot" x="60.50" y="226.00" />
    <use href="#dot" x="363.00" y="226.00" />
    <use href="#dot" x="417.00" y="226.00" />
    <use href="#dot" x="71.00" y="391.00" />
    <use href="#dot" x="202.00" y="391.00" />
    <use href="#dot" x="345.00" y="391.00" />
    <use href="#dot" x="21.00" y="443.00" />
    <use href="#dot" x="202.00" y="443.00" />
    <use href="#dot" x="395.50" y="443.00" />
</g>
</svg>