<svg width="326" height="342" viewBox="0 0 326 342" fill="none" xmlns="http://www.w3.org/2000/svg">
<style>
  .dot { animation: fade 3s ease-in-out infinite alternate; transform-origin: center; transform-box: fill-box; }
  .dot:nth-child(even) { animation-delay: -3s; animation-direction: alternate-reverse; }
  @keyframes fade {
    0%, 20% { opacity: 1; transform: scale(1); }
    80%, 100% { opacity: 0.1; transform: scale(0.2); }
  }
</style>
<path class="dot" d="M159.986 40.7656C164.457 40.7658 168.08 44.39 168.08 48.8604C168.08 53.3306 164.457 56.9539 159.986 56.9541C155.516 56.9541 151.892 53.3307 151.892 48.8604C151.892 44.3899 155.516 40.7656 159.986 40.7656Z" fill="#FFFEFE" stroke="white" stroke-width="2"/>
<path class="dot" d="M159.994 301.039C164.464 301.039 168.088 297.415 168.088 292.944C168.088 288.474 164.464 284.851 159.994 284.851C155.524 284.851 151.9 288.474 151.899 292.944C151.899 297.415 155.524 301.039 159.994 301.039Z" fill="#FFFEFE" stroke="white" stroke-width="2"/>
<path class="dot" d="M286.235 172.032C286.235 176.503 282.611 180.126 278.141 180.126C273.67 180.126 270.047 176.502 270.047 172.032C270.047 167.562 273.67 163.938 278.141 163.938C282.611 163.938 286.235 167.562 286.235 172.032Z" fill="#FFFEFE" stroke="white" stroke-width="2"/>
<path class="dot" d="M17.1885 172.032C17.1883 176.503 13.5641 180.126 9.09375 180.126C4.62354 180.126 1.00014 176.502 1 172.032C1 167.562 4.62346 163.938 9.09375 163.938C13.5642 163.938 17.1885 167.562 17.1885 172.032Z" fill="#FFFEFE" stroke="white" stroke-width="2"/>
<path class="dot" d="M266.033 40.7656C270.503 40.7658 274.127 44.39 274.127 48.8604C274.127 53.3306 270.503 56.9539 266.033 56.9541C261.563 56.9541 257.939 53.3307 257.938 48.8604C257.938 44.3899 261.563 40.7656 266.033 40.7656Z" fill="#FFFEFE" stroke="white" stroke-width="2"/>
<path class="dot" d="M266.037 301.039C270.507 301.039 274.131 297.415 274.131 292.944C274.131 288.474 270.507 284.851 266.037 284.851C261.567 284.851 257.943 288.474 257.942 292.944C257.942 297.415 261.567 301.039 266.037 301.039Z" fill="#FFFEFE" stroke="white" stroke-width="2"/>
<path class="dot" d="M53.5938 40.7656C49.1235 40.7658 45.5 44.39 45.5 48.8604C45.5001 53.3306 49.1235 56.9539 53.5938 56.9541C58.0641 56.9541 61.6883 53.3307 61.6885 48.8604C61.6885 44.3899 58.0642 40.7656 53.5938 40.7656Z" fill="#FFFEFE" stroke="white" stroke-width="2"/>
<path class="dot" d="M53.5938 301.039C49.1235 301.039 45.5 297.415 45.5 292.944C45.5001 288.474 49.1235 284.851 53.5938 284.851C58.0641 284.851 61.6883 288.474 61.6885 292.944C61.6885 297.415 58.0642 301.039 53.5938 301.039Z" fill="#FFFEFE" stroke="white" stroke-width="2"/>
<path class="dot" d="M306.393 1C310.863 1.00016 314.486 4.62437 314.486 9.09473C314.486 13.565 310.863 17.1883 306.393 17.1885C301.922 17.1885 298.298 13.5651 298.298 9.09473C298.298 4.62427 301.922 1 306.393 1Z" fill="#FFFEFE" stroke="white" stroke-width="2"/>
<path class="dot" d="M306.393 340.805C310.863 340.805 314.486 337.18 314.486 332.71C314.486 328.24 310.863 324.616 306.393 324.616C301.922 324.616 298.298 328.24 298.298 332.71C298.298 337.18 301.922 340.805 306.393 340.805Z" fill="#FFFEFE" stroke="white" stroke-width="2"/>
<path class="dot" d="M19.3086 1C14.8383 1.00016 11.2148 4.62437 11.2148 9.09473C11.215 13.565 14.8384 17.1883 19.3086 17.1885C23.7789 17.1885 27.4032 13.5651 27.4033 9.09473C27.4033 4.62427 23.779 1 19.3086 1Z" fill="#FFFEFE" stroke="white" stroke-width="2"/>
<path class="dot" d="M19.3086 340.805C14.8383 340.805 11.2148 337.18 11.2148 332.71C11.215 328.24 14.8384 324.616 19.3086 324.616C23.7789 324.616 27.4032 328.24 27.4033 332.71C27.4033 337.18 23.779 340.805 19.3086 340.805Z" fill="#FFFEFE" stroke="white" stroke-width="2"/>
<path class="dot" d="M159.916 1C164.386 1.00016 168.01 4.62437 168.01 9.09473C168.01 13.565 164.386 17.1883 159.916 17.1885C155.446 17.1885 151.821 13.5651 151.821 9.09473C151.821 4.62427 155.446 1 159.916 1Z" fill="#FFFEFE" stroke="white" stroke-width="2"/>
<path class="dot" d="M159.916 341C164.386 341 168.01 337.376 168.01 332.905C168.01 328.435 164.386 324.812 159.916 324.812C155.446 324.812 151.821 328.435 151.821 332.905C151.821 337.376 155.446 341 159.916 341Z" fill="#FFFEFE" stroke="white" stroke-width="2"/>
<path class="dot" d="M324.888 172.032C324.888 176.503 321.263 180.126 316.793 180.126C312.323 180.126 308.699 176.502 308.699 172.032C308.699 167.562 312.323 163.938 316.793 163.938C321.263 163.938 324.888 167.562 324.888 172.032Z" fill="#FFFEFE" stroke="white" stroke-width="2"/>
<path class="dot" d="M56.5986 172.032C56.5985 176.503 52.9742 180.126 48.5039 180.126C44.0337 180.126 40.4103 176.502 40.4102 172.032C40.4102 167.562 44.0336 163.938 48.5039 163.938C52.9743 163.938 56.5986 167.562 56.5986 172.032Z" fill="#FFFEFE" stroke="white" stroke-width="2"/>
</svg>