<svg width="206" height="206" viewBox="0 0 206 206" fill="none" xmlns="http://www.w3.org/2000/svg">
<circle cx="199.468" cy="5.72629" r="4.72629" fill="#FFFEFE" stroke="white" stroke-width="2"/>
<circle cx="5.72629" cy="5.72629" r="4.72629" transform="matrix(1 0 0 -1 47.7241 205.191)" fill="#FFFEFE" stroke="white" stroke-width="2"/>
<circle cx="198.037" cy="151.746" r="4.72629" transform="rotate(90 198.037 151.746)" fill="#FFFEFE" stroke="white" stroke-width="2"/>
<circle cx="5.72628" cy="103.073" r="4.72629" transform="rotate(90 5.72628 103.073)" fill="#FFFEFE" stroke="white" stroke-width="2"/>
<circle cx="53.923" cy="5.72629" r="4.72629" fill="#FFFEFE" stroke="white" stroke-width="2"/>
<circle cx="5.72629" cy="5.72629" r="4.72629" transform="matrix(1 0 0 -1 192.31 205.191)" fill="#FFFEFE" stroke="white" stroke-width="2"/>
<circle cx="5.72629" cy="5.72629" r="4.72629" transform="matrix(-1 0 0 1 11.4526 0)" fill="#FFFEFE" stroke="white" stroke-width="2"/>
<circle cx="5.72628" cy="151.746" r="4.72629" transform="rotate(180 5.72628 151.746)" fill="#FFFEFE" stroke="white" stroke-width="2"/>
<circle cx="198.036" cy="54.4001" r="4.72629" fill="#FFFEFE" stroke="white" stroke-width="2"/>
<circle cx="5.72629" cy="5.72629" r="4.72629" transform="matrix(1 0 0 -1 95.9174 205.191)" fill="#FFFEFE" stroke="white" stroke-width="2"/>
<circle cx="5.72629" cy="5.72629" r="4.72629" transform="matrix(-1 0 0 1 11.4526 48.6738)" fill="#FFFEFE" stroke="white" stroke-width="2"/>
<circle cx="5.72628" cy="199.465" r="4.72629" transform="rotate(180 5.72628 199.465)" fill="#FFFEFE" stroke="white" stroke-width="2"/>
<circle cx="151.271" cy="5.72629" r="4.72629" fill="#FFFEFE" stroke="white" stroke-width="2"/>
<circle cx="5.72629" cy="5.72629" r="4.72629" transform="matrix(1 0 0 -1 144.113 205.191)" fill="#FFFEFE" stroke="white" stroke-width="2"/>
<circle cx="198.037" cy="103.073" r="4.72629" transform="rotate(90 198.037 103.073)" fill="#FFFEFE" stroke="white" stroke-width="2"/>
<circle cx="102.599" cy="5.72629" r="4.72629" transform="rotate(90 102.599 5.72629)" fill="#FFFEFE" stroke="white" stroke-width="2"/>
<path d="M79.7899 100.272H78.4619C78.3499 98.512 76.9259 98.224 75.8379 98.224C74.6539 98.224 73.4699 98.688 73.4699 99.936C73.4699 102.928 79.8699 101.088 79.8699 105.152C79.8699 106.912 78.4619 108.192 75.8059 108.192C74.7179 108.192 71.9019 107.856 71.7579 104.864H73.1019C73.1659 106.576 74.5259 107.104 75.9019 107.104C77.3579 107.104 78.5099 106.608 78.5099 105.264C78.5099 102.224 72.1099 104.144 72.1099 100.016C72.1099 98.016 74.0459 97.168 75.9339 97.168C77.1979 97.168 79.6459 97.568 79.7899 100.272ZM85.5303 107.072V108.032C85.2263 108.144 84.7303 108.192 84.6183 108.192C82.3783 108.192 82.1703 106.976 82.1703 105.232V100.896H80.9063V99.904H82.1703V97.712H83.4663V99.904H85.5303V100.896H83.4663V105.2C83.4663 106.528 83.6583 107.072 84.7463 107.072H85.5303ZM88.6653 108H87.3693V99.84H88.5693V101.616C89.0653 100.176 89.9293 99.664 90.7133 99.664C90.8893 99.664 91.1773 99.68 91.4493 99.776V100.88H90.6493C89.5133 100.88 88.6653 101.824 88.6653 103.504V108ZM98.4663 105.744H99.7303C99.3463 107.28 98.2103 108.192 96.3543 108.192C93.9383 108.192 92.5143 106.624 92.5143 103.952C92.5143 101.28 94.0343 99.664 96.3543 99.664C98.6423 99.664 99.8103 101.152 99.8103 103.632L99.7783 104.24H93.8583C93.9063 106.096 94.7703 107.152 96.3223 107.152C97.5543 107.152 98.2263 106.64 98.4663 105.744ZM93.8743 103.28H98.4823C98.4343 101.664 97.8423 100.688 96.3223 100.688C94.8503 100.688 94.0343 101.632 93.8743 103.28ZM109.03 108H107.734V102.608C107.734 101.504 107.062 100.752 105.846 100.752C104.422 100.752 103.478 101.792 103.478 103.344V108H102.182V99.84H103.382V101.504C104.006 100.176 105.014 99.664 106.23 99.664C107.67 99.664 109.03 100.448 109.03 102.272V108ZM117.23 108.048V107.632L117.31 106.08C116.67 107.408 115.678 107.904 114.494 107.904C112.686 107.904 111.198 106.64 111.198 103.92C111.198 100.896 112.702 99.664 114.494 99.664C115.678 99.664 116.654 100.176 117.294 101.456V99.84H118.494V108C118.494 109.392 117.982 111.424 114.91 111.424C113.758 111.424 111.678 110.88 111.534 108.736L112.766 108.64C112.83 109.872 113.806 110.432 114.958 110.432C116.878 110.432 117.23 109.248 117.23 108.048ZM114.782 106.864C116.286 106.864 117.214 105.984 117.214 103.904C117.214 101.568 116.27 100.688 114.782 100.688C113.502 100.688 112.526 101.632 112.526 103.904C112.526 105.904 113.502 106.864 114.782 106.864ZM124.858 107.072V108.032C124.554 108.144 124.058 108.192 123.946 108.192C121.706 108.192 121.498 106.976 121.498 105.232V100.896H120.234V99.904H121.498V97.712H122.794V99.904H124.858V100.896H122.794V105.2C122.794 106.528 122.986 107.072 124.074 107.072H124.858ZM133.545 108H132.249V102.608C132.249 101.504 131.577 100.752 130.361 100.752C128.937 100.752 127.993 101.76 127.993 103.344V108H126.697V96.464H127.993V100.176L127.897 101.52C128.489 100.24 129.497 99.664 130.745 99.664C132.185 99.664 133.545 100.448 133.545 102.272V108Z" fill="white"/>
</svg>
