<svg width="204" height="206" viewBox="0 0 204 206" fill="none" xmlns="http://www.w3.org/2000/svg">
<circle cx="155.091" cy="41.9929" r="4.72629" fill="#FFFEFE" stroke="white" stroke-width="2"/>
<circle cx="5.72629" cy="5.72629" r="4.72629" transform="matrix(1 0 0 -1 68.2397 205.192)" fill="#FFFEFE" stroke="white" stroke-width="2"/>
<circle cx="198.035" cy="129.796" r="4.72629" transform="rotate(90 198.035 129.796)" fill="#FFFEFE" stroke="white" stroke-width="2"/>
<circle cx="47.7204" cy="102.595" r="4.72629" transform="rotate(90 47.7204 102.595)" fill="#FFFEFE" stroke="white" stroke-width="2"/>
<circle cx="73.966" cy="5.72629" r="4.72629" fill="#FFFEFE" stroke="white" stroke-width="2"/>
<circle cx="5.72629" cy="5.72629" r="4.72629" transform="matrix(1 0 0 -1 149.365 168.926)" fill="#FFFEFE" stroke="white" stroke-width="2"/>
<circle cx="5.72629" cy="5.72629" r="4.72629" transform="matrix(-1 0 0 1 53.4467 36.2666)" fill="#FFFEFE" stroke="white" stroke-width="2"/>
<circle cx="5.72628" cy="129.796" r="4.72629" transform="rotate(180 5.72628 129.796)" fill="#FFFEFE" stroke="white" stroke-width="2"/>
<circle cx="198.036" cy="77.3044" r="4.72629" fill="#FFFEFE" stroke="white" stroke-width="2"/>
<circle cx="5.72629" cy="5.72629" r="4.72629" transform="matrix(1 0 0 -1 95.9174 168.926)" fill="#FFFEFE" stroke="white" stroke-width="2"/>
<circle cx="5.72629" cy="5.72629" r="4.72629" transform="matrix(-1 0 0 1 11.4526 71.5781)" fill="#FFFEFE" stroke="white" stroke-width="2"/>
<circle cx="47.7204" cy="163.199" r="4.72629" transform="rotate(180 47.7204 163.199)" fill="#FFFEFE" stroke="white" stroke-width="2"/>
<circle cx="132.183" cy="5.72629" r="4.72629" fill="#FFFEFE" stroke="white" stroke-width="2"/>
<circle cx="5.72629" cy="5.72629" r="4.72629" transform="matrix(1 0 0 -1 126.456 205.192)" fill="#FFFEFE" stroke="white" stroke-width="2"/>
<circle cx="155.09" cy="103.073" r="4.72629" transform="rotate(90 155.09 103.073)" fill="#FFFEFE" stroke="white" stroke-width="2"/>
<circle cx="102.599" cy="41.9929" r="4.72629" transform="rotate(90 102.599 41.9929)" fill="#FFFEFE" stroke="white" stroke-width="2"/>
<path d="M86.6342 108.065H85.3062V98.9454L81.5622 108.065H80.4582L76.7622 98.9454V108.065H75.4502V97.3934H77.3862L81.0502 106.561L84.7142 97.3934H86.6342V108.065ZM92.6037 108.257C90.2677 108.257 88.8117 106.657 88.8117 104.001C88.8117 101.329 90.2677 99.7294 92.6037 99.7294C94.9397 99.7294 96.3957 101.329 96.3957 104.001C96.3957 106.657 94.9397 108.257 92.6037 108.257ZM92.6037 107.217C94.2357 107.217 95.0677 106.049 95.0677 104.001C95.0677 101.953 94.2357 100.753 92.6037 100.753C90.9717 100.753 90.1397 101.953 90.1397 104.001C90.1397 106.049 90.9717 107.217 92.6037 107.217ZM99.8232 108.065H98.6232V96.5294H99.9192V100.241L99.8232 101.505C100.479 100.241 101.439 99.7294 102.639 99.7294C104.431 99.7294 105.935 101.009 105.935 103.985C105.935 107.025 104.415 108.257 102.639 108.257C101.423 108.257 100.463 107.745 99.8232 106.449V108.065ZM102.335 107.233C103.615 107.233 104.607 106.273 104.607 103.985C104.607 101.729 103.615 100.753 102.335 100.753C100.847 100.753 99.9032 101.649 99.9032 103.985C99.9032 106.321 100.863 107.233 102.335 107.233ZM109.45 108.065H108.154V99.9054H109.45V108.065ZM109.498 98.2734H108.106V96.8494H109.498V98.2734ZM113.591 108.065H112.295V96.5294H113.591V108.065ZM117.732 108.065H116.436V99.9054H117.732V108.065ZM117.78 98.2734H116.388V96.8494H117.78V98.2734ZM124.112 107.137V108.097C123.808 108.209 123.312 108.257 123.2 108.257C120.96 108.257 120.752 107.041 120.752 105.297V100.961H119.488V99.9694H120.752V97.7774H122.048V99.9694H124.112V100.961H122.048V105.265C122.048 106.593 122.24 107.137 123.328 107.137H124.112ZM127.775 111.457H126.527L127.967 107.841L124.863 99.9054H126.223L128.607 106.449L131.071 99.9054H132.399L127.775 111.457Z" fill="white"/>
</svg>
