<svg width="224" height="222" viewBox="0 0 224 222" fill="none" xmlns="http://www.w3.org/2000/svg">
<circle cx="218.117" cy="111.961" r="4.72629" transform="rotate(90 218.117 111.961)" fill="#FFFEFE" stroke="white" stroke-width="2"/>
<circle cx="210.071" cy="152.577" r="4.72629" transform="rotate(112.499 210.071 152.577)" fill="#FFFEFE" stroke="white" stroke-width="2"/>
<circle cx="187.021" cy="187.038" r="4.72629" transform="rotate(135 187.021 187.038)" fill="#FFFEFE" stroke="white" stroke-width="2"/>
<circle cx="152.608" cy="210.069" r="4.72629" transform="rotate(157.287 152.608 210.069)" fill="#FFFEFE" stroke="white" stroke-width="2"/>
<circle cx="106.524" cy="215.749" r="4.72629" transform="rotate(-179.779 106.524 215.749)" fill="#FFFEFE" stroke="white" stroke-width="2"/>
<circle cx="70.919" cy="209.921" r="4.72629" transform="rotate(-157.287 70.919 209.921)" fill="#FFFEFE" stroke="white" stroke-width="2"/>
<circle cx="36.5763" cy="186.748" r="4.72629" transform="rotate(-134.792 36.5763 186.748)" fill="#FFFEFE" stroke="white" stroke-width="2"/>
<circle cx="13.7516" cy="152.428" r="4.72629" transform="rotate(-112.499 13.7516 152.428)" fill="#FFFEFE" stroke="white" stroke-width="2"/>
<circle cx="5.77033" cy="111.124" r="4.72629" transform="rotate(-89.5577 5.77033 111.124)" fill="#FFFEFE" stroke="white" stroke-width="2"/>
<circle cx="14.0984" cy="70.6657" r="4.72629" transform="rotate(-67.0734 14.0984 70.6657)" fill="#FFFEFE" stroke="white" stroke-width="2"/>
<circle cx="37.3871" cy="36.3674" r="4.72629" transform="rotate(-44.5837 37.3871 36.3674)" fill="#FFFEFE" stroke="white" stroke-width="2"/>
<circle cx="72.0677" cy="13.5272" r="4.72629" transform="rotate(-22.07 72.0677 13.5272)" fill="#FFFEFE" stroke="white" stroke-width="2"/>
<circle cx="113.195" cy="5.79222" r="4.72629" transform="rotate(0.663504 113.195 5.79222)" fill="#FFFEFE" stroke="white" stroke-width="2"/>
<circle cx="153.535" cy="14.2406" r="4.72629" transform="rotate(23.1406 153.535 14.2406)" fill="#FFFEFE" stroke="white" stroke-width="2"/>
<circle cx="187.795" cy="37.6651" r="4.72629" transform="rotate(45.6245 187.795 37.6651)" fill="#FFFEFE" stroke="white" stroke-width="2"/>
<circle cx="210.522" cy="72.4455" r="4.72629" transform="rotate(68.1444 210.522 72.4455)" fill="#FFFEFE" stroke="white" stroke-width="2"/>
<path d="M91.0556 107.272H89.7276C89.6156 105.512 88.1916 105.224 87.1036 105.224C85.9196 105.224 84.7356 105.688 84.7356 106.936C84.7356 109.928 91.1356 108.088 91.1356 112.152C91.1356 113.912 89.7276 115.192 87.0716 115.192C85.9836 115.192 83.1676 114.856 83.0236 111.864H84.3676C84.4316 113.576 85.7916 114.104 87.1676 114.104C88.6236 114.104 89.7756 113.608 89.7756 112.264C89.7756 109.224 83.3756 111.144 83.3756 107.016C83.3756 105.016 85.3116 104.168 87.1996 104.168C88.4636 104.168 90.9116 104.568 91.0556 107.272ZM96.7959 114.072V115.032C96.4919 115.144 95.9959 115.192 95.8839 115.192C93.6439 115.192 93.4359 113.976 93.4359 112.232V107.896H92.1719V106.904H93.4359V104.712H94.7319V106.904H96.7959V107.896H94.7319V112.2C94.7319 113.528 94.9239 114.072 96.0119 114.072H96.7959ZM105.835 114.152V115.016C105.451 115.144 105.051 115.192 104.795 115.192C103.771 115.192 103.371 114.776 103.371 113.528C102.699 114.824 101.579 115.192 100.619 115.192C99.4989 115.192 97.9629 114.696 97.9629 112.872C97.9629 110.76 99.6269 110.392 101.499 110.312L103.307 110.232V109.32C103.307 108.344 102.971 107.64 101.419 107.64C100.587 107.64 99.5949 107.912 99.4669 109.08L98.2509 108.968C98.3949 107.208 100.171 106.664 101.419 106.664C103.675 106.664 104.603 107.672 104.603 109.144V113.048C104.603 113.896 104.667 114.152 105.243 114.152H105.835ZM103.307 111.576V111.112L101.467 111.176C100.235 111.224 99.2589 111.56 99.2589 112.808C99.2589 114.04 100.427 114.168 101.019 114.168C102.171 114.168 103.307 113.288 103.307 111.576ZM108.741 115H107.541V103.464H108.837V107.176L108.741 108.44C109.397 107.176 110.357 106.664 111.557 106.664C113.349 106.664 114.853 107.944 114.853 110.92C114.853 113.96 113.333 115.192 111.557 115.192C110.341 115.192 109.381 114.68 108.741 113.384V115ZM111.253 114.168C112.533 114.168 113.525 113.208 113.525 110.92C113.525 108.664 112.533 107.688 111.253 107.688C109.765 107.688 108.821 108.584 108.821 110.92C108.821 113.256 109.781 114.168 111.253 114.168ZM118.368 115H117.072V106.84H118.368V115ZM118.416 105.208H117.024V103.784H118.416V105.208ZM122.509 115H121.213V103.464H122.509V115ZM126.65 115H125.354V106.84H126.65V115ZM126.698 105.208H125.306V103.784H126.698V105.208ZM133.03 114.072V115.032C132.726 115.144 132.23 115.192 132.118 115.192C129.878 115.192 129.67 113.976 129.67 112.232V107.896H128.406V106.904H129.67V104.712H130.966V106.904H133.03V107.896H130.966V112.2C130.966 113.528 131.158 114.072 132.246 114.072H133.03ZM136.693 118.392H135.445L136.885 114.776L133.781 106.84H135.141L137.525 113.384L139.989 106.84H141.317L136.693 118.392Z" fill="white"/>
</svg>
