<svg width="272" height="288" viewBox="0 0 272 288" fill="none" xmlns="http://www.w3.org/2000/svg">
<path d="M73.2845 144H71.9565V134.432H68.4365V133.328H76.8045V134.432H73.2845V144ZM85.358 144H84.062V138.608C84.062 137.504 83.39 136.752 82.174 136.752C80.75 136.752 79.806 137.76 79.806 139.344V144H78.51V132.464H79.806V136.176L79.71 137.52C80.302 136.24 81.31 135.664 82.558 135.664C83.998 135.664 85.358 136.448 85.358 138.272V144ZM93.6226 141.744H94.8866C94.5026 143.28 93.3666 144.192 91.5106 144.192C89.0946 144.192 87.6706 142.624 87.6706 139.952C87.6706 137.28 89.1906 135.664 91.5106 135.664C93.7986 135.664 94.9666 137.152 94.9666 139.632L94.9346 140.24H89.0146C89.0626 142.096 89.9266 143.152 91.4786 143.152C92.7106 143.152 93.3826 142.64 93.6226 141.744ZM89.0306 139.28H93.6386C93.5906 137.664 92.9986 136.688 91.4786 136.688C90.0066 136.688 89.1906 137.632 89.0306 139.28ZM104.624 143.072V144.032C104.32 144.144 103.824 144.192 103.712 144.192C101.472 144.192 101.264 142.976 101.264 141.232V136.896H100V135.904H101.264V133.712H102.56V135.904H104.624V136.896H102.56V141.2C102.56 142.528 102.752 143.072 103.84 143.072H104.624ZM113.311 144H112.015V138.608C112.015 137.504 111.343 136.752 110.127 136.752C108.703 136.752 107.759 137.76 107.759 139.344V144H106.463V132.464H107.759V136.176L107.663 137.52C108.255 136.24 109.263 135.664 110.511 135.664C111.951 135.664 113.311 136.448 113.311 138.272V144ZM117.4 144H116.104V135.84H117.304V137.616C117.8 136.176 118.664 135.664 119.448 135.664C119.624 135.664 119.912 135.68 120.184 135.776V136.88H119.384C118.248 136.88 117.4 137.824 117.4 139.504V144ZM127.201 141.744H128.465C128.081 143.28 126.945 144.192 125.089 144.192C122.673 144.192 121.249 142.624 121.249 139.952C121.249 137.28 122.769 135.664 125.089 135.664C127.377 135.664 128.545 137.152 128.545 139.632L128.513 140.24H122.593C122.641 142.096 123.505 143.152 125.057 143.152C126.289 143.152 126.961 142.64 127.201 141.744ZM122.609 139.28H127.217C127.169 137.664 126.577 136.688 125.057 136.688C123.585 136.688 122.769 137.632 122.609 139.28ZM136.388 141.744H137.652C137.268 143.28 136.132 144.192 134.276 144.192C131.86 144.192 130.436 142.624 130.436 139.952C130.436 137.28 131.956 135.664 134.276 135.664C136.564 135.664 137.732 137.152 137.732 139.632L137.7 140.24H131.78C131.828 142.096 132.692 143.152 134.244 143.152C135.476 143.152 136.148 142.64 136.388 141.744ZM131.796 139.28H136.404C136.356 137.664 135.764 136.688 134.244 136.688C132.772 136.688 131.956 137.632 131.796 139.28ZM145.15 147.392H143.854V135.84H145.054V137.472C145.694 136.192 146.654 135.664 147.87 135.664C149.646 135.664 151.166 136.88 151.166 139.936C151.166 142.912 149.662 144.192 147.87 144.192C146.686 144.192 145.726 143.712 145.07 142.464L145.15 143.696V147.392ZM147.566 143.152C148.846 143.152 149.838 142.192 149.838 139.936C149.838 137.664 148.846 136.688 147.566 136.688C146.094 136.688 145.134 137.552 145.134 139.936C145.134 142.24 146.078 143.152 147.566 143.152ZM154.681 144H153.385V135.84H154.681V144ZM154.729 134.208H153.337V132.784H154.729V134.208ZM158.822 144H157.526V132.464H158.822V144ZM162.962 144H161.666V132.464H162.962V144ZM173.007 143.152V144.016C172.623 144.144 172.223 144.192 171.967 144.192C170.943 144.192 170.543 143.776 170.543 142.528C169.871 143.824 168.751 144.192 167.791 144.192C166.671 144.192 165.135 143.696 165.135 141.872C165.135 139.76 166.799 139.392 168.671 139.312L170.479 139.232V138.32C170.479 137.344 170.143 136.64 168.591 136.64C167.759 136.64 166.767 136.912 166.639 138.08L165.423 137.968C165.567 136.208 167.343 135.664 168.591 135.664C170.847 135.664 171.775 136.672 171.775 138.144V142.048C171.775 142.896 171.839 143.152 172.415 143.152H173.007ZM170.479 140.576V140.112L168.639 140.176C167.407 140.224 166.431 140.56 166.431 141.808C166.431 143.04 167.599 143.168 168.191 143.168C169.343 143.168 170.479 142.288 170.479 140.576ZM176.009 144H174.713V135.84H175.913V137.616C176.409 136.176 177.273 135.664 178.057 135.664C178.233 135.664 178.521 135.68 178.793 135.776V136.88H177.993C176.857 136.88 176.009 137.824 176.009 139.504V144ZM186.048 137.984L184.832 138.064C184.72 136.816 183.824 136.576 182.976 136.576C182.064 136.576 181.232 136.848 181.232 137.76C181.232 140 186.144 138.624 186.144 141.84C186.144 143.264 184.928 144.192 182.896 144.192C181.952 144.192 179.888 143.92 179.696 141.776H180.928C181.056 142.88 181.984 143.216 182.928 143.216C184.096 143.216 184.88 142.864 184.88 141.92C184.88 139.664 179.968 141.008 179.968 137.872C179.968 136.336 181.504 135.664 182.944 135.664C184.064 135.664 185.856 135.952 186.048 137.984ZM195.225 144.192C192.889 144.192 191.433 142.592 191.433 139.936C191.433 137.264 192.889 135.664 195.225 135.664C197.561 135.664 199.017 137.264 199.017 139.936C199.017 142.592 197.561 144.192 195.225 144.192ZM195.225 143.152C196.857 143.152 197.689 141.984 197.689 139.936C197.689 137.888 196.857 136.688 195.225 136.688C193.593 136.688 192.761 137.888 192.761 139.936C192.761 141.984 193.593 143.152 195.225 143.152ZM202.748 144H201.452V136.848H200.188V135.84H201.452V134.976C201.452 133.568 201.644 132.288 203.9 132.288C204.124 132.288 204.524 132.304 204.844 132.368V133.28H204.028C202.94 133.28 202.748 133.856 202.748 134.896V135.84H204.812V136.848H202.748V144ZM73.8756 165H72.5796V159.608C72.5796 158.504 71.9716 157.752 70.8356 157.752C69.5876 157.752 68.7396 158.792 68.7396 160.344V165H67.4436V159.608C67.4436 158.504 66.8196 157.752 65.6836 157.752C64.4356 157.752 63.5716 158.792 63.5716 160.344V165H62.2756V156.84H63.4756V158.504C64.0356 157.192 64.9796 156.664 66.0676 156.664C67.2196 156.664 68.3236 157.224 68.6436 158.488C69.1716 157.224 70.0836 156.664 71.2356 156.664C72.5956 156.664 73.8756 157.448 73.8756 159.272V165ZM79.8499 165.192C77.5139 165.192 76.0579 163.592 76.0579 160.936C76.0579 158.264 77.5139 156.664 79.8499 156.664C82.1859 156.664 83.6419 158.264 83.6419 160.936C83.6419 163.592 82.1859 165.192 79.8499 165.192ZM79.8499 164.152C81.4819 164.152 82.3139 162.984 82.3139 160.936C82.3139 158.888 81.4819 157.688 79.8499 157.688C78.2179 157.688 77.3859 158.888 77.3859 160.936C77.3859 162.984 78.2179 164.152 79.8499 164.152ZM89.2934 165H87.9654L84.7814 156.84H86.1574L88.6534 163.688L91.1654 156.84H92.4934L89.2934 165ZM99.732 162.744H100.996C100.612 164.28 99.476 165.192 97.62 165.192C95.204 165.192 93.78 163.624 93.78 160.952C93.78 158.28 95.3 156.664 97.62 156.664C99.908 156.664 101.076 158.152 101.076 160.632L101.044 161.24H95.124C95.172 163.096 96.036 164.152 97.588 164.152C98.82 164.152 99.492 163.64 99.732 162.744ZM95.14 160.28H99.748C99.7 158.664 99.108 157.688 97.588 157.688C96.116 157.688 95.3 158.632 95.14 160.28ZM115.047 165H113.751V159.608C113.751 158.504 113.143 157.752 112.007 157.752C110.759 157.752 109.911 158.792 109.911 160.344V165H108.615V159.608C108.615 158.504 107.991 157.752 106.855 157.752C105.607 157.752 104.743 158.792 104.743 160.344V165H103.447V156.84H104.647V158.504C105.207 157.192 106.151 156.664 107.239 156.664C108.391 156.664 109.495 157.224 109.815 158.488C110.343 157.224 111.255 156.664 112.407 156.664C113.767 156.664 115.047 157.448 115.047 159.272V165ZM123.326 162.744H124.59C124.206 164.28 123.07 165.192 121.214 165.192C118.798 165.192 117.374 163.624 117.374 160.952C117.374 158.28 118.894 156.664 121.214 156.664C123.502 156.664 124.67 158.152 124.67 160.632L124.638 161.24H118.718C118.766 163.096 119.63 164.152 121.182 164.152C122.414 164.152 123.086 163.64 123.326 162.744ZM118.734 160.28H123.342C123.294 158.664 122.702 157.688 121.182 157.688C119.71 157.688 118.894 158.632 118.734 160.28ZM133.889 165H132.593V159.608C132.593 158.504 131.921 157.752 130.705 157.752C129.281 157.752 128.337 158.792 128.337 160.344V165H127.041V156.84H128.241V158.504C128.865 157.176 129.873 156.664 131.089 156.664C132.529 156.664 133.889 157.448 133.889 159.272V165ZM140.218 164.072V165.032C139.914 165.144 139.418 165.192 139.306 165.192C137.066 165.192 136.858 163.976 136.858 162.232V157.896H135.594V156.904H136.858V154.712H138.154V156.904H140.218V157.896H138.154V162.2C138.154 163.528 138.346 164.072 139.434 164.072H140.218ZM147.103 165H145.807V153.464H147.103V165ZM153.115 165.192C150.779 165.192 149.323 163.592 149.323 160.936C149.323 158.264 150.779 156.664 153.115 156.664C155.451 156.664 156.907 158.264 156.907 160.936C156.907 163.592 155.451 165.192 153.115 165.192ZM153.115 164.152C154.747 164.152 155.579 162.984 155.579 160.936C155.579 158.888 154.747 157.688 153.115 157.688C151.483 157.688 150.651 158.888 150.651 160.936C150.651 162.984 151.483 164.152 153.115 164.152ZM165.983 165H164.687V159.608C164.687 158.504 164.015 157.752 162.799 157.752C161.375 157.752 160.431 158.792 160.431 160.344V165H159.135V156.84H160.335V158.504C160.959 157.176 161.967 156.664 163.183 156.664C164.623 156.664 165.983 157.448 165.983 159.272V165ZM174.184 165.048V164.632L174.264 163.08C173.624 164.408 172.632 164.904 171.448 164.904C169.64 164.904 168.152 163.64 168.152 160.92C168.152 157.896 169.656 156.664 171.448 156.664C172.632 156.664 173.608 157.176 174.248 158.456V156.84H175.448V165C175.448 166.392 174.936 168.424 171.864 168.424C170.712 168.424 168.632 167.88 168.488 165.736L169.72 165.64C169.784 166.872 170.76 167.432 171.912 167.432C173.832 167.432 174.184 166.248 174.184 165.048ZM171.736 163.864C173.24 163.864 174.168 162.984 174.168 160.904C174.168 158.568 173.224 157.688 171.736 157.688C170.456 157.688 169.48 158.632 169.48 160.904C169.48 162.904 170.456 163.864 171.736 163.864ZM183.748 162.744H185.012C184.628 164.28 183.492 165.192 181.636 165.192C179.22 165.192 177.796 163.624 177.796 160.952C177.796 158.28 179.316 156.664 181.636 156.664C183.924 156.664 185.092 158.152 185.092 160.632L185.06 161.24H179.14C179.188 163.096 180.052 164.152 181.604 164.152C182.836 164.152 183.508 163.64 183.748 162.744ZM179.156 160.28H183.764C183.716 158.664 183.124 157.688 181.604 157.688C180.132 157.688 179.316 158.632 179.156 160.28ZM190.887 165H189.559L186.375 156.84H187.751L190.247 163.688L192.759 156.84H194.087L190.887 165ZM197.15 165H195.854V156.84H197.15V165ZM197.198 155.208H195.806V153.784H197.198V155.208ZM203.53 164.072V165.032C203.226 165.144 202.73 165.192 202.618 165.192C200.378 165.192 200.17 163.976 200.17 162.232V157.896H198.906V156.904H200.17V154.712H201.466V156.904H203.53V157.896H201.466V162.2C201.466 163.528 201.658 164.072 202.746 164.072H203.53ZM207.193 168.392H205.945L207.385 164.776L204.281 156.84H205.641L208.025 163.384L210.489 156.84H211.817L207.193 168.392Z" fill="white"/>
<circle cx="38.725" cy="143.725" r="4.725" transform="rotate(90 38.725 143.725)" fill="#FFFEFE" stroke="white" stroke-width="2"/>
<circle cx="265.725" cy="143.725" r="4.725" transform="rotate(90 265.725 143.725)" fill="#FFFEFE" stroke="white" stroke-width="2"/>
<circle cx="5.725" cy="5.725" r="4.725" transform="matrix(1 0 0 -1 123.45 288)" fill="#FFFEFE" stroke="white" stroke-width="2"/>
<circle cx="129.175" cy="5.725" r="4.725" fill="#FFFEFE" stroke="white" stroke-width="2"/>
<circle cx="13.725" cy="282.275" r="4.725" transform="rotate(180 13.725 282.275)" fill="#FFFEFE" stroke="white" stroke-width="2"/>
<circle cx="45.725" cy="249.275" r="4.725" transform="rotate(180 45.725 249.275)" fill="#FFFEFE" stroke="white" stroke-width="2"/>
<circle cx="5.725" cy="5.725" r="4.725" transform="matrix(-1 0 0 1 51.45 33)" fill="#FFFEFE" stroke="white" stroke-width="2"/>
<circle cx="5.725" cy="5.725" r="4.725" transform="matrix(1 0 0 -1 214.45 255)" fill="#FFFEFE" stroke="white" stroke-width="2"/>
<circle cx="5.725" cy="5.725" r="4.725" transform="matrix(-1 0 0 1 19.45 0)" fill="#FFFEFE" stroke="white" stroke-width="2"/>
<circle cx="5.72501" cy="143.725" r="4.725" transform="rotate(90 5.72501 143.725)" fill="#FFFEFE" stroke="white" stroke-width="2"/>
<circle cx="5.725" cy="5.725" r="4.725" transform="matrix(1 0 0 -1 246.45 288)" fill="#FFFEFE" stroke="white" stroke-width="2"/>
<circle cx="231.725" cy="143.725" r="4.725" transform="rotate(90 231.725 143.725)" fill="#FFFEFE" stroke="white" stroke-width="2"/>
<circle cx="220.175" cy="38.725" r="4.725" fill="#FFFEFE" stroke="white" stroke-width="2"/>
<circle cx="252.175" cy="5.725" r="4.725" fill="#FFFEFE" stroke="white" stroke-width="2"/>
<circle cx="5.725" cy="5.725" r="4.725" transform="matrix(1 0 0 -1 123.45 255)" fill="#FFFEFE" stroke="white" stroke-width="2"/>
<circle cx="129.175" cy="38.725" r="4.725" fill="#FFFEFE" stroke="white" stroke-width="2"/>
</svg>
