<svg width="426" height="452" viewBox="0 0 426 452" fill="none" xmlns="http://www.w3.org/2000/svg">
<path d="M118.952 219H116.96V204.648H111.68V202.992H124.232V204.648H118.952V219ZM137.062 219H135.118V210.912C135.118 209.256 134.11 208.128 132.286 208.128C130.15 208.128 128.734 209.64 128.734 212.016V219H126.79V201.696H128.734V207.264L128.59 209.28C129.478 207.36 130.99 206.496 132.862 206.496C135.022 206.496 137.062 207.672 137.062 210.408V219ZM149.459 215.616H151.355C150.779 217.92 149.075 219.288 146.291 219.288C142.667 219.288 140.531 216.936 140.531 212.928C140.531 208.92 142.811 206.496 146.291 206.496C149.723 206.496 151.475 208.728 151.475 212.448L151.427 213.36H142.547C142.619 216.144 143.915 217.728 146.243 217.728C148.091 217.728 149.099 216.96 149.459 215.616ZM142.571 211.92H149.483C149.411 209.496 148.523 208.032 146.243 208.032C144.035 208.032 142.811 209.448 142.571 211.92ZM165.961 217.608V219.048C165.505 219.216 164.761 219.288 164.593 219.288C161.233 219.288 160.921 217.464 160.921 214.848V208.344H159.025V206.856H160.921V203.568H162.865V206.856H165.961V208.344H162.865V214.8C162.865 216.792 163.153 217.608 164.785 217.608H165.961ZM178.992 219H177.048V210.912C177.048 209.256 176.04 208.128 174.216 208.128C172.08 208.128 170.664 209.64 170.664 212.016V219H168.72V201.696H170.664V207.264L170.52 209.28C171.408 207.36 172.92 206.496 174.792 206.496C176.952 206.496 178.992 207.672 178.992 210.408V219ZM185.125 219H183.181V206.76H184.981V209.424C185.725 207.264 187.021 206.496 188.197 206.496C188.461 206.496 188.893 206.52 189.301 206.664V208.32H188.101C186.397 208.32 185.125 209.736 185.125 212.256V219ZM199.826 215.616H201.722C201.146 217.92 199.442 219.288 196.658 219.288C193.034 219.288 190.898 216.936 190.898 212.928C190.898 208.92 193.178 206.496 196.658 206.496C200.09 206.496 201.842 208.728 201.842 212.448L201.794 213.36H192.914C192.986 216.144 194.282 217.728 196.61 217.728C198.458 217.728 199.466 216.96 199.826 215.616ZM192.938 211.92H199.85C199.778 209.496 198.89 208.032 196.61 208.032C194.402 208.032 193.178 209.448 192.938 211.92ZM213.607 215.616H215.503C214.927 217.92 213.223 219.288 210.439 219.288C206.815 219.288 204.679 216.936 204.679 212.928C204.679 208.92 206.959 206.496 210.439 206.496C213.871 206.496 215.623 208.728 215.623 212.448L215.575 213.36H206.695C206.767 216.144 208.063 217.728 210.391 217.728C212.239 217.728 213.247 216.96 213.607 215.616ZM206.719 211.92H213.631C213.559 209.496 212.671 208.032 210.391 208.032C208.183 208.032 206.959 209.448 206.719 211.92ZM226.75 224.088H224.806V206.76H226.606V209.208C227.566 207.288 229.006 206.496 230.83 206.496C233.494 206.496 235.774 208.32 235.774 212.904C235.774 217.368 233.518 219.288 230.83 219.288C229.054 219.288 227.614 218.568 226.63 216.696L226.75 218.544V224.088ZM230.374 217.728C232.294 217.728 233.782 216.288 233.782 212.904C233.782 209.496 232.294 208.032 230.374 208.032C228.166 208.032 226.726 209.328 226.726 212.904C226.726 216.36 228.142 217.728 230.374 217.728ZM241.046 219H239.102V206.76H241.046V219ZM241.118 204.312H239.03V202.176H241.118V204.312ZM247.257 219H245.313V201.696H247.257V219ZM253.468 219H251.524V201.696H253.468V219ZM268.535 217.728V219.024C267.959 219.216 267.359 219.288 266.975 219.288C265.439 219.288 264.839 218.664 264.839 216.792C263.831 218.736 262.151 219.288 260.711 219.288C259.031 219.288 256.727 218.544 256.727 215.808C256.727 212.64 259.223 212.088 262.031 211.968L264.743 211.848V210.48C264.743 209.016 264.239 207.96 261.911 207.96C260.663 207.96 259.175 208.368 258.983 210.12L257.159 209.952C257.375 207.312 260.039 206.496 261.911 206.496C265.295 206.496 266.687 208.008 266.687 210.216V216.072C266.687 217.344 266.783 217.728 267.647 217.728H268.535ZM264.743 213.864V213.168L261.983 213.264C260.135 213.336 258.671 213.84 258.671 215.712C258.671 217.56 260.423 217.752 261.311 217.752C263.039 217.752 264.743 216.432 264.743 213.864ZM273.039 219H271.095V206.76H272.895V209.424C273.639 207.264 274.935 206.496 276.111 206.496C276.375 206.496 276.807 206.52 277.215 206.664V208.32H276.015C274.311 208.32 273.039 209.736 273.039 212.256V219ZM288.097 209.976L286.273 210.096C286.105 208.224 284.761 207.864 283.489 207.864C282.121 207.864 280.873 208.272 280.873 209.64C280.873 213 288.241 210.936 288.241 215.76C288.241 217.896 286.417 219.288 283.369 219.288C281.953 219.288 278.857 218.88 278.569 215.664H280.417C280.609 217.32 282.001 217.824 283.417 217.824C285.169 217.824 286.345 217.296 286.345 215.88C286.345 212.496 278.977 214.512 278.977 209.808C278.977 207.504 281.281 206.496 283.441 206.496C285.121 206.496 287.809 206.928 288.097 209.976ZM301.862 219.288C298.358 219.288 296.174 216.888 296.174 212.904C296.174 208.896 298.358 206.496 301.862 206.496C305.366 206.496 307.55 208.896 307.55 212.904C307.55 216.888 305.366 219.288 301.862 219.288ZM301.862 217.728C304.31 217.728 305.558 215.976 305.558 212.904C305.558 209.832 304.31 208.032 301.862 208.032C299.414 208.032 298.166 209.832 298.166 212.904C298.166 215.976 299.414 217.728 301.862 217.728ZM313.147 219H311.203V208.272H309.307V206.76H311.203V205.464C311.203 203.352 311.491 201.432 314.875 201.432C315.211 201.432 315.811 201.456 316.291 201.552V202.92H315.067C313.435 202.92 313.147 203.784 313.147 205.344V206.76H316.243V208.272H313.147V219ZM119.838 250H117.894V241.912C117.894 240.256 116.982 239.128 115.278 239.128C113.406 239.128 112.134 240.688 112.134 243.016V250H110.19V241.912C110.19 240.256 109.254 239.128 107.55 239.128C105.678 239.128 104.382 240.688 104.382 243.016V250H102.438V237.76H104.238V240.256C105.078 238.288 106.494 237.496 108.126 237.496C109.854 237.496 111.51 238.336 111.99 240.232C112.782 238.336 114.15 237.496 115.878 237.496C117.918 237.496 119.838 238.672 119.838 241.408V250ZM128.8 250.288C125.296 250.288 123.112 247.888 123.112 243.904C123.112 239.896 125.296 237.496 128.8 237.496C132.304 237.496 134.488 239.896 134.488 243.904C134.488 247.888 132.304 250.288 128.8 250.288ZM128.8 248.728C131.248 248.728 132.496 246.976 132.496 243.904C132.496 240.832 131.248 239.032 128.8 239.032C126.352 239.032 125.104 240.832 125.104 243.904C125.104 246.976 126.352 248.728 128.8 248.728ZM142.965 250H140.973L136.197 237.76H138.261L142.005 248.032L145.773 237.76H147.765L142.965 250ZM158.623 246.616H160.519C159.943 248.92 158.239 250.288 155.455 250.288C151.831 250.288 149.695 247.936 149.695 243.928C149.695 239.92 151.975 237.496 155.455 237.496C158.887 237.496 160.639 239.728 160.639 243.448L160.591 244.36H151.711C151.783 247.144 153.079 248.728 155.407 248.728C157.255 248.728 158.263 247.96 158.623 246.616ZM151.735 242.92H158.647C158.575 240.496 157.687 239.032 155.407 239.032C153.199 239.032 151.975 240.448 151.735 242.92ZM181.596 250H179.652V241.912C179.652 240.256 178.74 239.128 177.036 239.128C175.164 239.128 173.892 240.688 173.892 243.016V250H171.948V241.912C171.948 240.256 171.012 239.128 169.308 239.128C167.436 239.128 166.14 240.688 166.14 243.016V250H164.196V237.76H165.996V240.256C166.836 238.288 168.252 237.496 169.884 237.496C171.612 237.496 173.268 238.336 173.748 240.232C174.54 238.336 175.908 237.496 177.636 237.496C179.676 237.496 181.596 238.672 181.596 241.408V250ZM194.014 246.616H195.91C195.334 248.92 193.63 250.288 190.846 250.288C187.222 250.288 185.086 247.936 185.086 243.928C185.086 239.92 187.366 237.496 190.846 237.496C194.278 237.496 196.03 239.728 196.03 243.448L195.982 244.36H187.102C187.174 247.144 188.47 248.728 190.798 248.728C192.646 248.728 193.654 247.96 194.014 246.616ZM187.126 242.92H194.038C193.966 240.496 193.078 239.032 190.798 239.032C188.59 239.032 187.366 240.448 187.126 242.92ZM209.859 250H207.915V241.912C207.915 240.256 206.907 239.128 205.083 239.128C202.947 239.128 201.531 240.688 201.531 243.016V250H199.587V237.76H201.387V240.256C202.323 238.264 203.835 237.496 205.659 237.496C207.819 237.496 209.859 238.672 209.859 241.408V250ZM219.352 248.608V250.048C218.896 250.216 218.152 250.288 217.984 250.288C214.624 250.288 214.312 248.464 214.312 245.848V239.344H212.416V237.856H214.312V234.568H216.256V237.856H219.352V239.344H216.256V245.8C216.256 247.792 216.544 248.608 218.176 248.608H219.352ZM229.679 250H227.735V232.696H229.679V250ZM238.698 250.288C235.194 250.288 233.01 247.888 233.01 243.904C233.01 239.896 235.194 237.496 238.698 237.496C242.202 237.496 244.386 239.896 244.386 243.904C244.386 247.888 242.202 250.288 238.698 250.288ZM238.698 248.728C241.146 248.728 242.394 246.976 242.394 243.904C242.394 240.832 241.146 239.032 238.698 239.032C236.25 239.032 235.002 240.832 235.002 243.904C235.002 246.976 236.25 248.728 238.698 248.728ZM257.999 250H256.055V241.912C256.055 240.256 255.047 239.128 253.223 239.128C251.087 239.128 249.671 240.688 249.671 243.016V250H247.727V237.76H249.527V240.256C250.463 238.264 251.975 237.496 253.799 237.496C255.959 237.496 257.999 238.672 257.999 241.408V250ZM270.3 250.072V249.448L270.42 247.12C269.46 249.112 267.972 249.856 266.196 249.856C263.484 249.856 261.252 247.96 261.252 243.88C261.252 239.344 263.508 237.496 266.196 237.496C267.972 237.496 269.436 238.264 270.396 240.184V237.76H272.196V250C272.196 252.088 271.428 255.136 266.82 255.136C265.092 255.136 261.972 254.32 261.756 251.104L263.604 250.96C263.7 252.808 265.164 253.648 266.892 253.648C269.772 253.648 270.3 251.872 270.3 250.072ZM266.628 248.296C268.884 248.296 270.276 246.976 270.276 243.856C270.276 240.352 268.86 239.032 266.628 239.032C264.708 239.032 263.244 240.448 263.244 243.856C263.244 246.856 264.708 248.296 266.628 248.296ZM284.646 246.616H286.542C285.966 248.92 284.262 250.288 281.478 250.288C277.854 250.288 275.718 247.936 275.718 243.928C275.718 239.92 277.998 237.496 281.478 237.496C284.91 237.496 286.662 239.728 286.662 243.448L286.614 244.36H277.734C277.806 247.144 279.102 248.728 281.43 248.728C283.278 248.728 284.286 247.96 284.646 246.616ZM277.758 242.92H284.67C284.598 240.496 283.71 239.032 281.43 239.032C279.222 239.032 277.998 240.448 277.758 242.92ZM295.356 250H293.364L288.588 237.76H290.652L294.396 248.032L298.164 237.76H300.156L295.356 250ZM304.75 250H302.806V237.76H304.75V250ZM304.822 235.312H302.734V233.176H304.822V235.312ZM314.32 248.608V250.048C313.864 250.216 313.12 250.288 312.952 250.288C309.592 250.288 309.28 248.464 309.28 245.848V239.344H307.384V237.856H309.28V234.568H311.224V237.856H314.32V239.344H311.224V245.8C311.224 247.792 311.512 248.608 313.144 248.608H314.32ZM319.815 255.088H317.943L320.103 249.664L315.447 237.76H317.487L321.063 247.576L324.759 237.76H326.751L319.815 255.088Z" fill="white"/>
<path d="M68 226C68 230.473 64.5891 234 60.5 234C56.4109 234 53 230.473 53 226C53 221.527 56.4109 218 60.5 218C64.5891 218 68 221.527 68 226Z" fill="#FFFEFE" stroke="white" stroke-width="2"/>
<circle cx="417" cy="226" r="8" transform="rotate(90 417 226)" fill="#FFFEFE" stroke="white" stroke-width="2"/>
<circle cx="9" cy="9" r="8" transform="matrix(1 0 0 -1 193 452)" fill="#FFFEFE" stroke="white" stroke-width="2"/>
<circle cx="202" cy="9" r="8" fill="#FFFEFE" stroke="white" stroke-width="2"/>
<circle cx="21" cy="443" r="8" transform="rotate(180 21 443)" fill="#FFFEFE" stroke="white" stroke-width="2"/>
<circle cx="71" cy="391" r="8" transform="rotate(180 71 391)" fill="#FFFEFE" stroke="white" stroke-width="2"/>
<circle cx="9" cy="9" r="8" transform="matrix(-1 0 0 1 80 52)" fill="#FFFEFE" stroke="white" stroke-width="2"/>
<circle cx="9" cy="9" r="8" transform="matrix(1 0 0 -1 336 400)" fill="#FFFEFE" stroke="white" stroke-width="2"/>
<circle cx="9" cy="9" r="8" transform="matrix(-1 0 0 1 30 0)" fill="#FFFEFE" stroke="white" stroke-width="2"/>
<circle cx="9" cy="226" r="8" transform="rotate(90 9 226)" fill="#FFFEFE" stroke="white" stroke-width="2"/>
<path d="M395.5 451C399.589 451 403 447.473 403 443C403 438.527 399.589 435 395.5 435C391.411 435 388 438.527 388 443C388 447.473 391.411 451 395.5 451Z" fill="#FFFEFE" stroke="white" stroke-width="2"/>
<circle cx="363" cy="226" r="8" transform="rotate(90 363 226)" fill="#FFFEFE" stroke="white" stroke-width="2"/>
<circle cx="345" cy="61" r="8" fill="#FFFEFE" stroke="white" stroke-width="2"/>
<path d="M395.5 1C399.589 1 403 4.5271 403 9C403 13.4729 399.589 17 395.5 17C391.411 17 388 13.4729 388 9C388 4.5271 391.411 1 395.5 1Z" fill="#FFFEFE" stroke="white" stroke-width="2"/>
<circle cx="9" cy="9" r="8" transform="matrix(1 0 0 -1 193 400)" fill="#FFFEFE" stroke="white" stroke-width="2"/>
<circle cx="202" cy="61" r="8" fill="#FFFEFE" stroke="white" stroke-width="2"/>
</svg>
